#!OML:ASF X:\für Bonn\!DataBase\2005_08_10_Bjorn_Final\c3d\bjorn.ASF
:FULLY-SPECIFIED
:DEGREES
97
root 0.871832 8.73255 2.70886 -184.172 -2.81537 -179.484
lowerback 33.2311 0.8076 7.5473
upperback 10.88 0.158894 1.36694
thorax -4.80101 -1.21541 -2.49408
lowerneck -22.5581 0.605002 2.22615
upperneck -5.69884 -1.2413 -3.95754
head 1.97168 -1.48773 -1.84439
rclavicle 1.27222e-014 7.95139e-015
rhumerus 72.7446 -0.013898 -46.4035
rradius 17.5129
rwrist 26.5448
rhand -13.5459 8.58963
rfingers 7.12502
rthumb 12.567 -21.0124
lclavicle 1.27222e-014 7.95139e-015
lhumerus 78.4288 -3.36527 57.2069
lradius 12.1661
lwrist -32.782
lhand -24.6058 -5.67493
lfingers 7.12502
lthumb 1.89226 24.2964
rfemur 88.2601 -99.0252 -171.698
rtibia 146.727
rfoot -37.9861 61.7991
rtoes -22.5147
lfemur -98.785 68.3153 -23.3301
ltibia 148.916
lfoot -35.3096 -36.8449
ltoes -28.0156
98
root 0.865827 8.92213 2.70663 -183.845 -2.72547 -179.472
lowerback 32.1853 0.861051 7.42846
upperback 11.0268 0.227274 1.48419
thorax -4.7859 -1.1278 -2.58739
lowerneck -22.7158 0.57272 2.29576
upperneck -5.45666 -1.27469 -4.02448
head 2.08366 -1.50061 -1.89016
rclavicle 1.15295e-014 -2.06736e-014
rhumerus 72.8083 -0.257949 -47.5797
rradius 17.3143
rwrist 27.8183
rhand -13.277 8.81559
rfingers 7.12502
rthumb 12.8262 -20.7704
lclavicle 1.15295e-014 -2.06736e-014
lhumerus 78.3443 -3.29157 57.6637
lradius 12.3529
lwrist -33.5631
lhand -24.4588 -5.70306
lfingers 7.12502
lthumb 2.03426 24.267
rfemur 90.4156 -103.598 -172.282
rtibia 145.415
rfoot -34.9572 60.1997
rtoes -22.656
lfemur -95.2989 64.1715 -20.9526
ltibia 147.656
lfoot -33.9361 -35.443
ltoes -28.6956
99
root 0.859579 9.11828 2.70462 -183.528 -2.64498 -179.423
lowerback 31.4806 0.852481 7.40073
upperback 10.8194 0.288899 1.47473
thorax -4.70979 -1.0479 -2.60826
lowerneck -22.9138 0.538406 2.28063
upperneck -5.18871 -1.29101 -4.00289
head 2.21222 -1.50043 -1.89026
rclavicle 6.75868e-015 9.54166e-015
rhumerus 72.9176 -0.399022 -48.3943
rradius 17.1499
rwrist 28.5966
rhand -13.1303 9.04078
rfingers 7.12502
rthumb 12.9676 -20.5362
lclavicle 6.75868e-015 9.54166e-015
lhumerus 78.434 -3.19997 57.5509
lradius 12.3104
lwrist -33.822
lhand -24.2985 -5.80061
lfingers 7.12502
lthumb 2.1891 24.1679
rfemur 92.0907 -108.408 -172.338
rtibia 144.045
rfoot -32.5032 58.2597
rtoes -22.963
lfemur -92.4757 59.9038 -19.1821
ltibia 146.348
lfoot -32.697 -33.8862
ltoes -29.456
100
root 0.853308 9.32117 2.70209 -183.241 -2.54496 -179.391
lowerback 30.7371 0.863194 7.35661
upperback 10.6095 0.36853 1.45869
thorax -4.61373 -0.958092 -2.63226
lowerneck -22.9223 0.484353 2.30386
upperneck -4.98703 -1.3335 -4.00488
head 2.28392 -1.50941 -1.90263
rclavicle 2.3059e-014 1.43125e-014
rhumerus 72.9433 -0.444466 -48.8299
rradius 17.0311
rwrist 28.8917
rhand -13.0958 9.22328
rfingers 7.12502
rthumb 13.0008 -20.3516
lclavicle 2.3059e-014 1.43125e-014
lhumerus 78.4792 -3.16816 57.3921
lradius 12.2867
lwrist -34.0988
lhand -24.0635 -5.84697
lfingers 7.12502
lthumb 2.41607 24.1191
rfemur 93.6421 -113.178 -172.29
rtibia 142.626
rfoot -30.6853 56.0919
rtoes -23.5856
lfemur -90.0438 55.6495 -17.8672
ltibia 144.977
lfoot -31.6695 -32.1544
ltoes -30.3798
101
root 0.846956 9.52742 2.70004 -182.954 -2.47552 -179.343
lowerback 29.8961 0.873094 7.33638
upperback 10.4336 0.437669 1.44562
thorax -4.42924 -0.871687 -2.66266
lowerneck -22.9502 0.411756 2.3158
upperneck -4.73984 -1.39187 -3.97251
head 2.37462 -1.52237 -1.90385
rclavicle -6.36111e-015 -3.97569e-015
rhumerus 72.9475 -0.4542 -49.0349
rradius 16.9666
rwrist 28.8902
rhand -13.1421 9.41765
rfingers 7.12502
rthumb 12.9562 -20.1601
lclavicle -6.36111e-015 -3.97569e-015
lhumerus 78.5218 -3.13581 57.4198
lradius 12.3029
lwrist -34.4983
lhand -23.836 -5.90567
lfingers 7.12502
lthumb 2.63575 24.0578
rfemur 95.0248 -117.865 -172.109
rtibia 141.176
rfoot -29.161 53.8648
rtoes -24.1426
lfemur -87.9864 51.3993 -16.8824
ltibia 143.566
lfoot -30.623 -30.4507
ltoes -31.0559
102
root 0.8415 9.73696 2.69724 -182.691 -2.38451 -179.235
lowerback 29.047 0.881909 7.33984
upperback 10.2675 0.504012 1.46234
thorax -4.22402 -0.789358 -2.67095
lowerneck -22.9323 0.341002 2.30142
upperneck -4.52142 -1.4427 -3.94136
head 2.44742 -1.53149 -1.89855
rclavicle -2.54444e-014 3.18055e-015
rhumerus 72.9559 -0.346167 -48.8447
rradius 16.9563
rwrist 28.5268
rhand -13.2568 9.53148
rfingers 7.12502
rthumb 12.8457 -20.0532
lclavicle -2.54444e-014 3.18055e-015
lhumerus 78.4725 -3.04365 57.7705
lradius 12.3848
lwrist -35.2792
lhand -23.5895 -5.94071
lfingers 7.12502
lthumb 2.87383 24.0197
rfemur 96.3864 -122.451 -171.834
rtibia 139.682
rfoot -27.8138 51.6667
rtoes -24.397
lfemur -86.1429 47.5068 -16.0348
ltibia 142.12
lfoot -29.7308 -28.8632
ltoes -31.5583
103
root 0.83645 9.94913 2.69435 -182.447 -2.30534 -179.145
lowerback 28.226 0.891177 7.35159
upperback 10.0901 0.574768 1.45737
thorax -4.03868 -0.704842 -2.70757
lowerneck -23.3886 0.235015 2.20112
upperneck -3.64296 -1.51033 -3.95113
head 2.43072 -1.55802 -1.73823
rclavicle -3.57812e-015 3.57812e-014
rhumerus 72.8964 -0.18341 -48.3712
rradius 16.9884
rwrist 27.928
rhand -13.4519 9.63316
rfingers 7.12502
rthumb 12.6576 -19.9633
lclavicle -3.57812e-015 3.57812e-014
lhumerus 78.3657 -3.03123 58.3015
lradius 12.5006
lwrist -36.1895
lhand -23.3823 -5.93936
lfingers 7.12502
lthumb 3.07388 24.0182
rfemur 97.6865 -126.784 -171.524
rtibia 138.16
rfoot -26.8569 49.3982
rtoes -24.8483
lfemur -84.4458 43.7973 -15.3891
ltibia 140.628
lfoot -29.0944 -27.1922
ltoes -32.2973
104
root 0.831951 10.1576 2.68989 -182.201 -2.21501 -179.075
lowerback 27.3668 0.914467 7.3258
upperback 9.91842 0.648398 1.46715
thorax -3.82587 -0.619645 -2.70576
lowerneck -23.4322 0.117477 2.08786
upperneck -3.28029 -1.58354 -3.83972
head 2.5471 -1.56891 -1.69417
rclavicle -9.93923e-015 -2.94201e-014
rhumerus 72.842 0.0342212 -47.7595
rradius 17.0638
rwrist 27.2839
rhand -13.6611 9.6632
rfingers 7.12502
rthumb 12.4559 -19.9456
lclavicle -9.93923e-015 -2.94201e-014
lhumerus 78.175 -3.01829 58.9447
lradius 12.6812
lwrist -37.087
lhand -23.2748 -5.90035
lfingers 7.12502
lthumb 3.17769 24.0557
rfemur 98.8871 -130.711 -171.216
rtibia 136.648
rfoot -25.989 47.3575
rtoes -24.9694
lfemur -82.9217 40.4798 -14.9208
ltibia 139.148
lfoot -28.6002 -25.6517
ltoes -32.7776
105
root 0.828299 10.3611 2.68467 -181.98 -2.13583 -179.097
lowerback 26.5169 0.95052 7.21587
upperback 9.74897 0.715717 1.43776
thorax -3.61407 -0.538271 -2.69551
lowerneck -23.4539 -0.00682303 2.00159
upperneck -2.90904 -1.66972 -3.7244
head 2.663 -1.58468 -1.65413
rclavicle -3.57812e-015 -1.74931e-014
rhumerus 72.7515 0.279685 -47.0382
rradius 17.1669
rwrist 26.563
rhand -13.8874 9.64317
rfingers 7.12502
rthumb 12.2377 -19.9788
lclavicle -3.57812e-015 -1.74931e-014
lhumerus 78.0001 -3.07573 59.3914
lradius 12.8141
lwrist -37.6744
lhand -23.3142 -5.92127
lfingers 7.12502
lthumb 3.13966 24.0354
rfemur 100.067 -134.074 -171.053
rtibia 135.16
rfoot -25.2725 45.598
rtoes -24.851
lfemur -81.4608 37.4169 -14.6431
ltibia 137.653
lfoot -28.3004 -24.1574
ltoes -33.2688
106
root 0.825021 10.5665 2.67885 -181.779 -2.06705 -179.12
lowerback 25.653 0.98737 7.10506
upperback 9.60139 0.775128 1.41476
thorax -3.36708 -0.462694 -2.67379
lowerneck -23.5171 -0.136778 1.88538
upperneck -2.49713 -1.75505 -3.59794
head 2.79778 -1.59938 -1.60677
rclavicle 4.77083e-015 9.54166e-015
rhumerus 72.7125 0.49544 -46.4002
rradius 17.2737
rwrist 26.0323
rhand -14.031 9.55099
rfingers 7.12502
rthumb 12.0992 -20.0792
lclavicle 4.77083e-015 9.54166e-015
lhumerus 77.8807 -3.14728 59.6778
lradius 12.8764
lwrist -38.0264
lhand -23.398 -6.00509
lfingers 7.12502
lthumb 3.0587 23.9527
rfemur 101.312 -137.122 -170.917
rtibia 133.647
rfoot -24.7456 43.9692
rtoes -24.6406
lfemur -80.055 34.5521 -14.444
ltibia 136.125
lfoot -28.103 -22.659
ltoes -33.7774
107
root 0.821851 10.7749 2.67218 -181.577 -1.99712 -179.18
lowerback 24.7889 1.02791 6.96184
upperback 9.44282 0.835442 1.37858
thorax -3.12898 -0.386836 -2.64654
lowerneck -23.531 -0.272409 1.74915
upperneck -2.1207 -1.84545 -3.44884
head 2.91541 -1.61517 -1.54878
rclavicle 1.23246e-014 -1.74931e-014
rhumerus 72.6646 0.723042 -45.7371
rradius 17.3831
rwrist 25.5368
rhand -14.1735 9.47337
rfingers 7.12502
rthumb 11.9619 -20.1649
lclavicle 1.23246e-014 -1.74931e-014
lhumerus 77.8066 -3.24967 59.7841
lradius 12.8673
lwrist -38.0695
lhand -23.4881 -6.11929
lfingers 7.12502
lthumb 2.97177 23.8397
rfemur 102.527 -139.916 -170.782
rtibia 132.101
rfoot -24.4058 42.4021
rtoes -24.4614
lfemur -78.6542 31.868 -14.348
ltibia 134.533
lfoot -27.8238 -21.3648
ltoes -33.6717
108
root 0.818904 10.9851 2.66482 -181.384 -1.92785 -179.24
lowerback 23.9559 1.0597 6.79864
upperback 9.26768 0.885526 1.35978
thorax -2.92211 -0.318707 -2.58485
lowerneck -23.6056 -0.41865 1.51838
upperneck -1.67279 -1.923 -3.27583
head 3.06522 -1.62292 -1.46873
rclavicle 1.47101e-014 4.6118e-014
rhumerus 72.6771 0.942478 -45.3895
rradius 17.4677
rwrist 25.4388
rhand -14.2121 9.35205
rfingers 7.12502
rthumb 11.9246 -20.2883
lclavicle 1.47101e-014 4.6118e-014
lhumerus 77.775 -3.35977 59.4933
lradius 12.7807
lwrist -37.6
lhand -23.615 -6.2673
lfingers 7.12502
lthumb 2.84914 23.6934
rfemur 103.745 -142.501 -170.627
rtibia 130.513
rfoot -24.1467 40.884
rtoes -24.0981
lfemur -77.274 29.4284 -14.317
ltibia 132.887
lfoot -27.6361 -20.1497
ltoes -33.4978
